<?xml version="1.0" encoding="UTF-8" standalone="no"?>
<!-- Created with Inkscape (http://www.inkscape.org/) -->

<svg
   width="90.025002"
   height="90.025002"
   viewBox="0 0 23.819114 23.819114"
   version="1.1"
   id="svg1"
   inkscape:version="1.3.2 (091e20e, 2023-11-25, custom)"
   sodipodi:docname="aml_logo.svg"
   inkscape:export-filename="favicon-32x32.png"
   inkscape:export-xdpi="34.123856"
   inkscape:export-ydpi="34.123856"
   xmlns:inkscape="http://www.inkscape.org/namespaces/inkscape"
   xmlns:sodipodi="http://sodipodi.sourceforge.net/DTD/sodipodi-0.dtd"
   xmlns="http://www.w3.org/2000/svg"
   xmlns:svg="http://www.w3.org/2000/svg">
  <sodipodi:namedview
     id="namedview1"
     pagecolor="#ffffff"
     bordercolor="#666666"
     borderopacity="1.0"
     inkscape:showpageshadow="2"
     inkscape:pageopacity="0.0"
     inkscape:pagecheckerboard="0"
     inkscape:deskcolor="#d1d1d1"
     inkscape:document-units="px"
     inkscape:zoom="8"
     inkscape:cx="37.5"
     inkscape:cy="52.6875"
     inkscape:window-width="1920"
     inkscape:window-height="1111"
     inkscape:window-x="-9"
     inkscape:window-y="-9"
     inkscape:window-maximized="1"
     inkscape:current-layer="layer1"
     showguides="true">
    <sodipodi:guide
       position="11.909556,11.888235"
       orientation="0,-1"
       id="guide1"
       inkscape:locked="false" />
    <sodipodi:guide
       position="10.715625,7.9397051"
       orientation="0,-1"
       id="guide2"
       inkscape:locked="false" />
    <sodipodi:guide
       position="10.528863,11.544649"
       orientation="0,-1"
       id="guide3"
       inkscape:locked="false" />
  </sodipodi:namedview>
  <defs
     id="defs1">
    <inkscape:path-effect
       effect="spiro"
       id="path-effect34"
       is_visible="true"
       lpeversion="1" />
    <inkscape:path-effect
       effect="spiro"
       id="path-effect9"
       is_visible="true"
       lpeversion="1" />
  </defs>
  <g
     inkscape:label="version 1"
     inkscape:groupmode="layer"
     id="layer1"
     style="display:inline"
     transform="translate(-0.94743208,-6.3404455)">
    <path
       d="m 6.4065983,24.469006 1.5603509,-4.174993 3.6970468,0.01406 0.632576,1.911781 c 0.140571,0.393602 0.112463,0.576346 -0.01406,0.702861 -0.210857,0.196801 -0.44983,0.126515 -0.632574,0.238973 -0.08435,0.07029 -0.0984,0.210858 -0.07029,0.25303 0.05623,0.07029 1.068349,-0.07029 2.206984,-0.07029 1.166748,0 2.16481,0.140573 2.221039,0.07029 0.04217,-0.04217 0.02812,-0.182744 -0.07029,-0.25303 -0.168687,-0.112462 -0.309259,-0.0984 -0.590403,-0.238973 -0.224915,-0.126515 -0.407659,-0.309259 -0.548232,-0.702861 l -2.971153,-8.603018 c -0.01406,-0.05623 -0.0652,-0.07029 -0.205775,-0.07029 -0.253029,0 -0.873939,0.0666 -1.408114,0.0666 -0.5622879,0 -1.1545609,-0.06152 -1.4497619,-0.06152 -0.112463,0 -0.256848,-0.02865 -0.284963,0.01351 -0.042173,0.07029 0.0049,0.173821 0.08928,0.244108 0.140573,0.112463 0.352387,0.06658 0.535131,0.179029 0.07029,0.04217 0.392854,0.230215 0.420969,0.314559 0.112451,0.267086 -0.03923,0.63537 -0.236039,1.155486 L 5.830245,24.483054 c -0.7028613,1.841496 -1.6728091,2.333499 -2.6146423,2.333499 -0.3092588,0 -0.7590893,-0.07029 -0.9558911,-0.337373 0.6747468,0 1.2089209,-0.534174 1.2089209,-1.194864 0,-0.660689 -0.5482308,-1.194865 -1.2370354,-1.194865 -0.7309747,0 -1.2510921,0.660691 -1.2510921,1.279208 0,1.180807 1.1245772,1.925839 2.2632122,1.925839 0.9137187,0 2.2210399,-0.309259 3.1628743,-2.825502 z m 1.7430949,-4.638881 1.7852659,-4.751339 1.5744089,4.751339 z"
       id="path9"
       style="font-size:177.8px;line-height:1.25;font-family:'Wild Mango';-inkscape-font-specification:'Wild Mango';display:inline;fill:#a0cdf6;fill-opacity:1;stroke-width:0.264582"
       inkscape:label="A"
       aria-label=""
       sodipodi:nodetypes="cccccccscccccsssccccccscssssccccc" />
    <path
       d="m 11.630923,13.114186 0.632576,1.911781 c 0.140571,0.393602 0.112463,0.576346 -0.01406,0.702861 -0.210857,0.196801 -0.44983,0.126515 -0.632574,0.238973 -0.08435,0.07029 -0.0984,0.210858 -0.07029,0.25303 0.05623,0.07029 1.068349,-0.07029 2.206984,-0.07029 1.166748,0 2.16481,0.140573 2.221039,0.07029 0.04217,-0.04217 0.02812,-0.182744 -0.07029,-0.25303 -0.168687,-0.112462 -0.309259,-0.0984 -0.590403,-0.238973 -0.224915,-0.126515 -0.407659,-0.309259 -0.548232,-0.702861 L 11.79452,6.4229484 c -0.01406,-0.056231 -0.0652,-0.070289 -0.205775,-0.070289 -0.253029,0 -0.873939,0.066598 -1.408114,0.066598 -0.5622878,0 -1.1545608,-0.061517 -1.4497618,-0.061517 -0.112463,0 -0.256848,-0.028651 -0.284963,0.013511 -0.042173,0.070289 0.0049,0.1738216 0.08928,0.2441086 0.140573,0.1124627 0.352387,0.066575 0.535131,0.179029 0.049792,0.029875 0.2261779,0.132948 0.3348112,0.2205044"
       id="path29"
       style="font-size:177.8px;line-height:1.25;font-family:'Wild Mango';-inkscape-font-specification:'Wild Mango';display:none;fill:#fad6f8;fill-opacity:1;stroke-width:0.264582"
       inkscape:label="right of A"
       aria-label=""
       sodipodi:nodetypes="ccccccscccccsssccc" />
    <path
       style="display:inline;fill:#a0cdf6;stroke:none;stroke-width:3.34652px;stroke-linecap:butt;stroke-linejoin:miter;stroke-opacity:1"
       d="m 672.90555,23.409975 c -6.50332,-0.557007 -13.01238,-1.046937 -19.5258,-1.469685 -2.0503,-0.133073 -4.10895,-0.259459 -6.15754,-0.102171 -2.04858,0.157288 -4.10005,0.608588 -5.91486,1.571855 -3.22411,1.711299 -5.47251,4.966092 -6.42202,8.490561 -0.94951,3.524469 -0.6918,7.293039 0.22833,10.825294 1.05939,4.066866 2.97899,7.918445 3.52621,12.085248 0.18456,1.40533 0.20937,2.831578 0.0738,4.242477 -1.26901,-1.296626 -2.82759,-2.30826 -4.52857,-2.939368 -2.80612,-1.041144 -6.03191,-1.004657 -8.74028,0.269326 -2.49669,1.174414 -4.47504,3.361257 -5.50868,5.919443 -1.43947,3.562589 -0.99543,7.835571 1.17954,11.00316 1.8694,2.722571 4.98529,4.582077 8.2797,4.814282 3.22192,0.227095 6.45411,-1.078643 8.86328,-3.229974 2.08093,-1.858226 3.583,-4.307004 4.56304,-6.919054 1.44198,-3.843229 1.78465,-8.074312 1.11011,-12.123351 -0.77754,-4.667325 -2.84998,-9.006854 -4.19909,-13.542093 -0.70164,-2.35865 -1.21122,-4.817203 -1.00739,-7.269544 0.20384,-2.452341 1.19182,-4.915807 3.07136,-6.504153 1.31707,-1.113016 2.99692,-1.739077 4.70303,-1.989405 1.70611,-0.250329 3.44603,-0.143401 5.15586,0.08014 3.93738,0.514768 7.79316,1.64896 11.38215,3.348109 z"
       id="path2"
       sodipodi:nodetypes="cszaaszaaaaaaaaascc"
       inkscape:path-effect="#path-effect9"
       inkscape:original-d="m 672.90555,23.409975 c 0,0 -14.17196,-1.154752 -19.5258,-1.469685 -5.35384,-0.314932 -8.31213,-2.046732 -12.0724,1.469684 -3.76027,3.516413 -6.10444,12.554918 -6.19369,19.315855 -0.0554,4.196027 2.89643,7.936382 3.52621,12.085248 0.21226,1.398354 0.13721,2.587979 0.0738,4.242477 0,0 -2.27679,-2.256958 -4.52857,-2.939368 -2.25177,-0.682409 -6.08606,-0.935339 -8.74028,0.269326 -2.4544,1.113974 -4.65738,3.362036 -5.50868,5.919443 -1.16504,3.499921 -0.82794,7.908522 1.17954,11.00316 1.73744,2.678359 5.09969,4.531781 8.2797,4.814282 3.13216,0.27825 6.39587,-1.280687 8.86328,-3.229974 2.16786,-1.712638 3.64909,-4.311866 4.56304,-6.919054 1.34245,-3.829541 1.53413,-8.087542 1.11011,-12.123351 -0.49383,-4.700187 -3.84041,-8.829665 -4.19909,-13.542093 -0.35234,-4.629104 -1.14819,-10.421867 2.06397,-13.773697 2.31605,-2.416752 7.11596,-2.591877 9.85889,-1.909266 4.67431,1.163263 11.78294,0.906733 11.38215,3.348109 z"
       inkscape:label="swirl"
       transform="matrix(0.07906196,0,0,0.07906196,-34.418402,11.813539)" />
    <path
       d="m 22.944016,23.415387 h 1.194863 c 0.15463,-0.660689 0.393603,-1.504122 0.660689,-2.474071 -0.07029,-0.05623 -0.253029,-0.07029 -0.35143,0.01406 -0.112463,0.07029 -0.224915,0.35143 -0.379544,0.632575 -0.492003,0.913718 -0.927777,1.349492 -1.729039,1.349492 h -1.054291 c -0.759089,0 -1.124577,-0.25303 -1.124577,-0.984005 v -7.18324 c 0,-0.421716 0.0984,-0.576345 0.295202,-0.702861 0.267086,-0.168686 0.435774,-0.126515 0.618518,-0.238972 0.08435,-0.07029 0.0984,-0.210858 0.07029,-0.25303 -0.05623,-0.07029 -1.026177,0.07029 -2.164812,0.07029 -1.138634,0 -2.12264,-0.140572 -2.178869,-0.07029 -0.02811,0.04217 -0.02811,0.182743 0.07029,0.25303 0.168686,0.112463 0.379544,0.07029 0.660688,0.238972 0.182744,0.126515 0.295201,0.281144 0.295201,0.702861 v 7.450325 c 0,0.421717 -0.0984,0.576346 -0.295201,0.702861 -0.267087,0.168686 -0.449831,0.112463 -0.632575,0.238973 -0.08435,0.07029 -0.09841,0.210858 -0.07029,0.25303 0.05623,0.07029 0.871547,-0.07029 2.010182,-0.07029 1.138634,0 2.909844,0.07029 4.104708,0.07029 z"
       id="path10"
       style="font-size:177.8px;line-height:1.25;font-family:'Wild Mango';-inkscape-font-specification:'Wild Mango';display:inline;fill:#a0cdf6;stroke-width:0.264582"
       inkscape:label="L"
       aria-label="L" />
  </g>
  <g
     inkscape:label="version 1 split"
     inkscape:groupmode="layer"
     id="g33"
     style="display:none"
     transform="translate(-0.94743208,-6.3404455)">
    <path
       d="m 6.3735254,17.275119 1.5603509,-4.174993 3.6970467,0.01406 0.632576,1.911781 c 0.140571,0.393602 0.112463,0.576346 -0.01406,0.702861 -0.210857,0.196801 -0.44983,0.126515 -0.632574,0.238973 -0.08435,0.07029 -0.0984,0.210858 -0.07029,0.25303 0.05623,0.07029 1.068349,-0.07029 2.206984,-0.07029 1.166748,0 2.16481,0.140573 2.221039,0.07029 0.04217,-0.04217 0.02812,-0.182744 -0.07029,-0.25303 -0.168687,-0.112462 -0.309259,-0.0984 -0.590403,-0.238973 -0.224915,-0.126515 -0.407659,-0.309259 -0.548232,-0.702861 L 11.79452,6.4229484 c -0.01406,-0.056231 -0.0652,-0.070289 -0.205775,-0.070289 -0.253029,0 -0.873939,0.066598 -1.408114,0.066598 -0.5622878,0 -1.1545608,-0.061517 -1.4497618,-0.061517 -0.112463,0 -0.256848,-0.028651 -0.284963,0.013511 -0.042173,0.070289 0.0049,0.1738216 0.08928,0.2441086 0.140573,0.1124627 0.352387,0.066575 0.535131,0.179029 0.07029,0.042174 0.392854,0.2302148 0.420969,0.3145584 0.112451,0.2670865 -0.03923,0.63537 -0.236039,1.1554862 L 5.7971721,17.289167 c -0.7028613,1.841496 -1.6728091,2.333499 -2.6146423,2.333499 -0.3092588,0 -0.7590893,-0.07029 -0.9558911,-0.337373 0.6747468,0 1.2089209,-0.534174 1.2089209,-1.194864 0,-0.660689 -0.5482308,-1.194865 -1.2370354,-1.194865 -0.7309747,0 -1.25109212,0.660691 -1.25109212,1.279208 0,1.180807 1.12457722,1.925839 2.26321222,1.925839 0.9137187,0 2.2210399,-0.309259 3.1628743,-2.825502 z m 1.7430949,-4.638881 1.7852659,-4.751339 1.5744088,4.751339 z"
       id="path30"
       style="font-size:177.8px;line-height:1.25;font-family:'Wild Mango';-inkscape-font-specification:'Wild Mango';display:inline;fill:#a0cdf6;fill-opacity:1;stroke-width:0.264582"
       inkscape:label="A"
       aria-label=""
       sodipodi:nodetypes="cccccccscccccsssccccccscssssccccc" />
    <path
       d="m 11.630923,13.114186 0.632576,1.911781 c 0.140571,0.393602 0.112463,0.576346 -0.01406,0.702861 -0.210857,0.196801 -0.44983,0.126515 -0.632574,0.238973 -0.08435,0.07029 -0.0984,0.210858 -0.07029,0.25303 0.05623,0.07029 1.068349,-0.07029 2.206984,-0.07029 1.166748,0 2.16481,0.140573 2.221039,0.07029 0.04217,-0.04217 0.02812,-0.182744 -0.07029,-0.25303 -0.168687,-0.112462 -0.309259,-0.0984 -0.590403,-0.238973 -0.224915,-0.126515 -0.407659,-0.309259 -0.548232,-0.702861 L 11.79452,6.4229484 c -0.01406,-0.056231 -0.0652,-0.070289 -0.205775,-0.070289 -0.253029,0 -0.873939,0.066598 -1.408114,0.066598 -0.5622878,0 -1.1545608,-0.061517 -1.4497618,-0.061517 -0.112463,0 -0.256848,-0.028651 -0.284963,0.013511 -0.042173,0.070289 0.0049,0.1738216 0.08928,0.2441086 0.140573,0.1124627 0.352387,0.066575 0.535131,0.179029 0.049792,0.029875 0.2261779,0.132948 0.3348112,0.2205044"
       id="path31"
       style="font-size:177.8px;line-height:1.25;font-family:'Wild Mango';-inkscape-font-specification:'Wild Mango';display:inline;fill:#fad6f8;fill-opacity:1;stroke-width:0.264582"
       inkscape:label="right of A"
       aria-label=""
       sodipodi:nodetypes="ccccccscccccsssccc" />
    <path
       style="display:inline;fill:#fad6f8;stroke:none;stroke-width:3.34652px;stroke-linecap:butt;stroke-linejoin:miter;stroke-opacity:1"
       d="m 672.90555,23.409975 c -6.50332,-0.557007 -13.01238,-1.046937 -19.5258,-1.469685 -2.0503,-0.133073 -4.10895,-0.259459 -6.15754,-0.102171 -2.04858,0.157288 -4.10005,0.608588 -5.91486,1.571855 -3.22411,1.711299 -5.47251,4.966092 -6.42202,8.490561 -0.94951,3.524469 -0.6918,7.293039 0.22833,10.825294 1.05939,4.066866 2.97899,7.918445 3.52621,12.085248 0.18456,1.40533 0.20937,2.831578 0.0738,4.242477 -1.26901,-1.296626 -2.82759,-2.30826 -4.52857,-2.939368 -2.80612,-1.041144 -6.03191,-1.004657 -8.74028,0.269326 -2.49669,1.174414 -4.47504,3.361257 -5.50868,5.919443 -1.43947,3.562589 -0.99543,7.835571 1.17954,11.00316 1.8694,2.722571 4.98529,4.582077 8.2797,4.814282 3.22192,0.227095 6.45411,-1.078643 8.86328,-3.229974 2.08093,-1.858226 3.583,-4.307004 4.56304,-6.919054 1.44198,-3.843229 1.78465,-8.074312 1.11011,-12.123351 -0.77754,-4.667325 -2.84998,-9.006854 -4.19909,-13.542093 -0.70164,-2.35865 -1.21122,-4.817203 -1.00739,-7.269544 0.20384,-2.452341 1.19182,-4.915807 3.07136,-6.504153 1.31707,-1.113016 2.99692,-1.739077 4.70303,-1.989405 1.70611,-0.250329 3.44603,-0.143401 5.15586,0.08014 3.93738,0.514768 7.79316,1.64896 11.38215,3.348109 z"
       id="path32"
       sodipodi:nodetypes="cszaaszaaaaaaaaascc"
       inkscape:path-effect="#path-effect34"
       inkscape:original-d="m 672.90555,23.409975 c 0,0 -14.17196,-1.154752 -19.5258,-1.469685 -5.35384,-0.314932 -8.31213,-2.046732 -12.0724,1.469684 -3.76027,3.516413 -6.10444,12.554918 -6.19369,19.315855 -0.0554,4.196027 2.89643,7.936382 3.52621,12.085248 0.21226,1.398354 0.13721,2.587979 0.0738,4.242477 0,0 -2.27679,-2.256958 -4.52857,-2.939368 -2.25177,-0.682409 -6.08606,-0.935339 -8.74028,0.269326 -2.4544,1.113974 -4.65738,3.362036 -5.50868,5.919443 -1.16504,3.499921 -0.82794,7.908522 1.17954,11.00316 1.73744,2.678359 5.09969,4.531781 8.2797,4.814282 3.13216,0.27825 6.39587,-1.280687 8.86328,-3.229974 2.16786,-1.712638 3.64909,-4.311866 4.56304,-6.919054 1.34245,-3.829541 1.53413,-8.087542 1.11011,-12.123351 -0.49383,-4.700187 -3.84041,-8.829665 -4.19909,-13.542093 -0.35234,-4.629104 -1.14819,-10.421867 2.06397,-13.773697 2.31605,-2.416752 7.11596,-2.591877 9.85889,-1.909266 4.67431,1.163263 11.78294,0.906733 11.38215,3.348109 z"
       inkscape:label="swirl"
       transform="matrix(0.07906196,0,0,0.07906196,-34.451475,4.619652)" />
    <path
       d="m 22.910943,16.2215 h 1.194863 c 0.15463,-0.660689 0.393603,-1.504122 0.660689,-2.474071 -0.07029,-0.05623 -0.253029,-0.07029 -0.35143,0.01406 -0.112463,0.07029 -0.224915,0.35143 -0.379544,0.632575 -0.492003,0.913718 -0.927777,1.349492 -1.729039,1.349492 h -1.054291 c -0.759089,0 -1.124577,-0.25303 -1.124577,-0.984005 V 7.5763111 c 0,-0.421717 0.0984,-0.5763464 0.295202,-0.7028613 0.267086,-0.1686861 0.435774,-0.1265149 0.618518,-0.2389719 0.08435,-0.070289 0.0984,-0.2108585 0.07029,-0.2530298 -0.05623,-0.070289 -1.026177,0.070289 -2.164812,0.070289 -1.138634,0 -2.12264,-0.1405727 -2.178869,-0.070289 -0.02811,0.042174 -0.02811,0.1827429 0.07029,0.2530298 0.168686,0.1124627 0.379544,0.070289 0.660688,0.2389719 0.182744,0.1265149 0.295201,0.2811443 0.295201,0.7028613 v 7.4503249 c 0,0.421717 -0.0984,0.576346 -0.295201,0.702861 -0.267087,0.168686 -0.449831,0.112463 -0.632575,0.238973 -0.08435,0.07029 -0.09841,0.210858 -0.07029,0.25303 0.05623,0.07029 0.871547,-0.07029 2.010182,-0.07029 1.138634,0 2.909844,0.07029 4.104708,0.07029 z"
       id="path33"
       style="font-size:177.8px;line-height:1.25;font-family:'Wild Mango';-inkscape-font-specification:'Wild Mango';display:inline;fill:#a0cdf6;stroke-width:0.264582"
       inkscape:label="L"
       aria-label="L" />
  </g>
  <g
     inkscape:groupmode="layer"
     id="layer6"
     inkscape:label="version 2"
     style="display:none"
     transform="translate(-0.88883605,-6.4295966)">
    <path
       d="m 6.3091295,17.364006 1.5617467,-4.178727 3.7003538,0.01407 0.633142,1.913492 c 0.140697,0.393953 0.112556,0.576861 -0.01408,0.703489 -0.211047,0.196978 -0.450234,0.126628 -0.633141,0.239186 -0.08442,0.07035 -0.09849,0.211048 -0.07035,0.253256 0.05628,0.07035 1.069303,-0.07035 2.208957,-0.07035 1.167792,0 2.166747,0.140698 2.223027,0.07035 0.0422,-0.0422 0.02815,-0.182906 -0.07035,-0.253256 C 15.679598,15.942959 15.5389,15.957026 15.257503,15.81633 15.032391,15.6897 14.849484,15.506792 14.708786,15.112839 L 11.734973,6.5021255 c -0.01407,-0.056284 -0.06526,-0.070349 -0.205958,-0.070349 -0.253256,0 -0.874722,0.066656 -1.409373,0.066656 -0.5627919,0 -1.1555937,-0.061577 -1.4510593,-0.061577 -0.1125581,0 -0.2570775,-0.028688 -0.2852171,0.013532 -0.042209,0.070349 0.00494,0.1739768 0.08936,0.2443251 0.140698,0.1125568 0.3527017,0.066632 0.5356089,0.17919 0.070348,0.042207 0.3932054,0.2304213 0.421345,0.3148395 0.1125581,0.267326 -0.039271,0.6359381 -0.236249,1.1565201 l -3.461168,9.0328038 c -0.7034896,1.843143 -1.674305,2.335586 -2.6169808,2.335586 -0.3095355,0 -0.7597687,-0.07035 -0.9567457,-0.337675 0.6753498,0 1.2100018,-0.534653 1.2100018,-1.195933 0,-0.661279 -0.5487219,-1.195932 -1.2381416,-1.195932 -0.7316289,0 -1.25221118,0.661281 -1.25221118,1.280351 0,1.181863 1.12558318,1.927561 2.26523618,1.927561 0.9145363,0 2.2230267,-0.309535 3.1657026,-2.828028 z m 1.744654,-4.64303 1.7868631,-4.7555897 1.5758154,4.7555897 z"
       id="path11"
       style="font-size:177.8px;line-height:1.25;font-family:'Wild Mango';-inkscape-font-specification:'Wild Mango';display:inline;fill:#a0cdf6;stroke-width:0.264583"
       inkscape:label="A"
       aria-label=""
       sodipodi:nodetypes="cccccccscccccsssccccccscssssccccc" />
    <path
       d="m 22.861339,16.309443 h 1.195931 c 0.154768,-0.66128 0.393954,-1.505466 0.66128,-2.476283 -0.07035,-0.05628 -0.253256,-0.07035 -0.351744,0.01407 -0.112557,0.07035 -0.225117,0.351745 -0.379885,0.63314 -0.492442,0.914536 -0.928606,1.3507 -1.730584,1.3507 h -1.055233 c -0.75977,0 -1.125585,-0.253256 -1.125585,-0.984885 V 7.6565174 c 0,-0.4220938 0.09849,-0.5768617 0.295467,-0.7034897 0.267326,-0.1688377 0.436164,-0.126628 0.619069,-0.2391861 0.08442,-0.07035 0.09849,-0.2110475 0.07035,-0.253256 -0.05628,-0.07035 -1.027096,0.070349 -2.166748,0.070349 -1.139653,0 -2.124538,-0.1406979 -2.180819,-0.070349 -0.02815,0.042207 -0.02815,0.1829064 0.07035,0.253256 0.168838,0.1125568 0.379884,0.070349 0.66128,0.2391861 0.182908,0.126628 0.295466,0.2813959 0.295466,0.7034897 v 7.4569896 c 0,0.422093 -0.09849,0.576861 -0.295466,0.703489 -0.267326,0.168837 -0.450232,0.112558 -0.63314,0.239186 -0.08442,0.07035 -0.09849,0.211047 -0.07035,0.253256 0.05628,0.07035 0.872327,-0.07035 2.011979,-0.07035 1.139655,0 2.912449,0.07035 4.108381,0.07035 z"
       id="path12"
       style="font-size:177.8px;line-height:1.25;font-family:'Wild Mango';-inkscape-font-specification:'Wild Mango';display:inline;fill:#a0cdf6;stroke-width:0.264583"
       inkscape:label="L"
       aria-label="L" />
    <path
       id="path13"
       style="display:inline;fill:#a0cdf6;stroke:none;stroke-width:0.264583px;stroke-linecap:butt;stroke-linejoin:miter;stroke-opacity:1"
       inkscape:label="swirl"
       d="m 17.162222,6.5154414 c -0.160067,0.00743 -0.418336,0.16255 -0.418336,0.16255 0.102659,0.1023577 -0.09336,0.6216143 -0.09336,0.6216143 l -0.899113,2.1137144 c -0.0088,-0.012404 -0.203407,-0.2857405 -0.355319,-0.3447675 -0.214997,-0.083547 -0.481587,-0.074017 -0.691622,0.021302 -0.194223,0.088157 -0.368554,0.2660545 -0.43592,0.4684288 -0.0922,0.2769582 -0.06554,0.6258046 0.09331,0.8706926 0.137488,0.211945 0.403585,0.358603 0.655227,0.380958 0.247855,0.02202 0.512571,-0.09348 0.701355,-0.25558 0.150989,-0.129652 0.257841,-0.354808 0.361085,-0.547517 0.09473,-0.1768384 0.233377,-0.549732 0.236197,-0.5573284 l 1.198287,-2.8136797 c 0,0 -0.08768,0.040993 -0.261061,-0.098182 -0.0221,-0.017733 -0.05381,-0.023916 -0.09074,-0.022207 z" />
  </g>
</svg>
